HIERARCHY
ROOT Hips
{
  OFFSET -187.679 86.5976 -156.378
  CHANNELS 6 Xposition Yposition Zposition Zrotation Xrotation Yrotation
  JOINT LeftUpLeg
  {
    OFFSET 8.64259 1.95398 -2.38835
    CHANNELS 3 Zrotation Xrotation Yrotation
    JOINT LeftLeg
    {
      OFFSET 43.7702 0 0
      CHANNELS 3 Zrotation Xrotation Yrotation
      JOINT LeftFoot
      {
        OFFSET 40.6238 0 0
        CHANNELS 3 Zrotation Xrotation Yrotation
        JOINT LeftToeBase
        {
          OFFSET 12.7242 0 0
          CHANNELS 3 Zrotation Xrotation Yrotation
          End Site
          {
            OFFSET 0 0 0
          }
        }
      }
    }
  }
  JOINT RightUpLeg
  {
    OFFSET -8.2249 1.95398 -2.59336
    CHANNELS 3 Zrotation Xrotation Yrotation
    JOINT RightLeg
    {
      OFFSET 43.5653 0 0
      CHANNELS 3 Zrotation Xrotation Yrotation
      JOINT RightFoot
      {
        OFFSET 40.6238 0 0
        CHANNELS 3 Zrotation Xrotation Yrotation
        JOINT RightToeBase
        {
          OFFSET 12.7242 0 0
          CHANNELS 3 Zrotation Xrotation Yrotation
          End Site
          {
            OFFSET 0 0 0
          }
        }
      }
    }
  }
  JOINT Spine
  {
    OFFSET 0.165834 0.87714 6.61349
    CHANNELS 3 Zrotation Xrotation Yrotation
    JOINT Spine1
    {
      OFFSET 7.38963 1.71661e-005 0
      CHANNELS 3 Zrotation Xrotation Yrotation
      JOINT Spine2
      {
        OFFSET 11.9445 1.14441e-005 0
        CHANNELS 3 Zrotation Xrotation Yrotation
        JOINT Spine3
        {
          OFFSET 14.7254 4.19617e-005 0
          CHANNELS 3 Zrotation Xrotation Yrotation
          JOINT Spine4
          {
            OFFSET 10.9679 0 0
            CHANNELS 3 Zrotation Xrotation Yrotation
            JOINT RightShoulder
            {
              OFFSET 2.46616 -1.6653 3.69651
              CHANNELS 3 Zrotation Xrotation Yrotation
              JOINT RightArm
              {
                OFFSET 13.0012 0 0
                CHANNELS 3 Zrotation Xrotation Yrotation
                JOINT RightForeArm
                {
                  OFFSET 28.7848 1.52588e-005 0
                  CHANNELS 3 Zrotation Xrotation Yrotation
                  JOINT RightHand
                  {
                    OFFSET 26.5688 1.52588e-005 0
                    CHANNELS 3 Zrotation Xrotation Yrotation
                    End Site
                    {
                      OFFSET 0 0 0
                    }
                  }
                }
              }
            }
            JOINT LeftShoulder
            {
              OFFSET 2.38034 -1.29275 -3.7523
              CHANNELS 3 Zrotation Xrotation Yrotation
              JOINT LeftArm
              {
                OFFSET 16.3182 6.10352e-005 0
                CHANNELS 3 Zrotation Xrotation Yrotation
                JOINT LeftForeArm
                {
                  OFFSET 27.0901 0 0
                  CHANNELS 3 Zrotation Xrotation Yrotation
                  JOINT LeftHand
                  {
                    OFFSET 24.5451 1.52588e-005 0
                    CHANNELS 3 Zrotation Xrotation Yrotation
                    End Site
                    {
                      OFFSET 0 0 0
                    }
                  }
                }
              }
            }
            JOINT Neck
            {
              OFFSET 5.0226 -0.0266342 0
              CHANNELS 3 Zrotation Xrotation Yrotation
              JOINT Head
              {
                OFFSET 6.69363 2.86102e-005 0
                CHANNELS 3 Zrotation Xrotation Yrotation
                End Site
                {
                  OFFSET 0 0 0
                }
              }
            }
          }
        }
      }
    }
  }
}
MOTION
Frames:	9
Frame Time:	0.0416667
39.5163 102.881 -290.361 -168.286 -83.1024 -171.667 -173.893 -8.8384 90.3543 -9.90584 18.5406 8.42467 68.3039 3.37696 -5.30489 22.5208 -7.26878 11.8478 171.88 -3.91958 85.8631 -17.6062 5.90044 1.80057 68.6056 -3.2067 3.76065 26.4979 0.422591 -2.52582 -0.117998 7.6514 -89.8 11.5712 -0.141046 0.413123 -0.0998174 -0.122727 0.418916 -22.6346 -0.258687 0.351623 -2.62198 -0.258686 0.351633 88.4659 -46.9793 -103.772 29.952 -16.7606 -10.5564 -24.4265 -31.9561 -25.7494 -14.8703 -0.711562 0.568481 -90.207 -48.1837 78.241 -29.4549 16.4948 -11.7424 10.7893 3.57 -7.37704 -5.47599 0.0171235 -8.02055 4.37157 0.198029 -6.94783 13.1579 3.52599 14.8662 
38.8405 102.991 -290.294 -150.338 -82.7446 -152.776 -174.004 -7.73318 91.1629 -11.5184 14.5263 8.93889 69.7514 3.65336 -6.55928 19.0433 -7.59033 8.44228 172.434 -3.2488 87.1186 -18.4452 4.24903 1.82452 67.296 -2.80236 1.28174 27.7379 -0.578464 1.3756 0.0608064 7.55435 -89.7707 11.7648 0.228705 0.433257 0.0937644 0.247556 0.422773 -22.4408 0.0879187 0.481961 -2.4282 0.0879241 0.481965 86.2975 -48.9507 -106.565 29.2125 -18.5738 -9.37497 -22.4375 -27.0206 -23.9235 -12.7183 -0.690107 1.29448 -89.4422 -46.6279 79.0658 -27.9685 21.4093 -8.16474 9.50832 -3.44233 -10.3259 -5.06726 -0.0145609 -7.25423 6.08348 0.15769 0.296163 5.92686 0.0612519 0.36243 
37.5413 102.854 -289.759 -145.739 -82.1779 -148.566 -173.854 -7.75494 91.5502 -12.2125 14.0206 8.09302 69.7575 4.43484 -5.92496 19.5241 -7.08027 7.84224 172.466 -2.7156 87.3266 -20.7676 4.27476 1.81212 70.2663 -3.296 1.34774 24.4297 -1.66174 3.01683 0.195108 7.60587 -89.7168 11.6606 0.520959 0.510272 -0.0102865 0.542911 0.486843 -22.5451 0.343518 0.643243 -2.53244 0.343521 0.643247 86.0121 -49.2626 -106.903 29.7942 -22.5533 -8.774 -18.6837 -18.3622 -21.0392 -7.48148 0.0230156 -5.51929 -89.678 -46.7388 78.7253 -26.2293 23.8042 -5.54825 8.43035 -7.66395 -13.9776 -5.10206 -0.0275048 -6.53544 5.29049 0.239149 0.379074 6.66942 0.240136 0.917285 
35.6109 101.751 -289.973 -150.027 -82.7832 -152.265 -174.05 0.205238 94.7204 -25.7257 14.223 6.73399 71.9836 6.16116 -4.60427 24.4725 -5.87313 11.0287 172.445 -0.72308 88.5543 -25.4706 4.03644 3.27559 72.5063 -3.64325 0.750379 25.0338 -0.921017 1.0485 0.23946 7.70661 -89.7874 11.4593 0.575792 0.365532 -0.211602 0.591325 0.339819 -22.747 0.439322 0.521684 -2.73432 0.439311 0.52167 86.5319 -48.1176 -106.457 30.4261 -22.7178 -8.73587 -18.8459 -19.7389 -20.9637 -7.86786 -0.0928174 -4.04855 -89.2466 -46.3059 79.2994 -25.4955 21.9476 -5.34587 8.8038 -7.60593 -14.5284 -4.76537 -0.068265 -5.09465 6.41821 0.397355 1.67459 6.70627 0.0807694 0.226143 
34.0136 100.845 -290.207 -169.674 -82.8766 -170.776 -175.943 9.87634 95.0413 -44.0133 16.2268 8.38367 71.4462 6.14377 -2.05634 20.7987 -7.44721 10.1525 172.567 -0.450291 90.3366 -28.4824 6.19366 4.8666 73.8315 -3.50508 1.17308 25.3458 -1.30878 2.43444 0.263503 7.94516 -90.0283 10.9839 0.511515 -0.105135 -0.686981 0.506384 -0.127561 -23.2229 0.519459 0.0534591 -3.21029 0.519457 0.0534548 86.8658 -47.1423 -106.237 29.8895 -22.467 -9.22522 -17.7232 -18.6936 -18.7559 -9.42211 -0.137632 -3.46416 -89.6668 -48.0159 79.0262 -23.69 19.5032 -4.00533 9.57484 -7.06643 -19.4265 -3.93478 -0.0776936 -4.85125 6.90237 -0.0217411 3.99993 7.66768 -0.920795 -1.14859 
32.8903 101.166 -289.15 174.853 -82.5955 173.229 -178.051 16.5284 92.6745 -52.8351 19.4723 9.14987 68.0524 5.10353 1.43606 19.2347 -6.7297 6.73736 172.685 -2.72389 90.7774 -26.7509 10.295 4.86023 75.5804 -3.24588 2.72236 22.5555 -1.58732 1.77797 0.437861 8.08474 -90.0483 10.7072 0.84976 -0.173958 -0.963501 0.841281 -0.211187 -23.5009 0.862754 0.0894944 -3.48822 0.862753 0.0894886 86.3911 -47.4559 -106.881 28.3729 -22.3814 -8.72319 -16.3162 -17.8469 -16.6327 -11.2692 -0.122962 -3.87892 -89.6086 -48.6133 79.2432 -23.9293 17.4458 -2.33916 10.5619 -5.6463 -22.6473 -3.49566 -0.091757 -3.72094 6.09724 -1.24239 3.22288 8.64907 -1.95571 -1.20785 
32.5256 101.281 -287.366 175.682 -82.9123 171.935 -178.708 18.4799 88.5793 -45.769 21.4813 7.47852 69.0218 4.38454 -2.85709 17.7833 -7.44243 6.74168 171.713 -4.07154 88.5044 -24.8353 8.90561 4.5136 74.6741 -3.11632 2.54912 26.5554 -1.58774 4.08932 0.781385 8.10558 -89.7775 10.6605 1.65863 0.291433 -1.0094 1.66985 0.21812 -23.5515 1.49434 0.77655 -3.53884 1.49435 0.776541 86.1632 -48.2026 -107 28.4063 -22.4473 -9.2936 -15.6378 -18.836 -14.9143 -10.7941 -0.140288 -3.62018 -89.6348 -47.6705 78.999 -25.0735 16.4581 -0.512193 10.2502 -6.06004 -20.9137 -3.78955 -0.0888411 -4.11228 5.67695 -2.50695 1.20155 8.2253 -2.73277 -0.615793 
32.4278 101.368 -284.949 173.924 -83.3912 168.993 -179.468 18.3001 85.0237 -30.9295 21.8506 5.72605 67.5197 4.51273 -0.277701 15.4532 -6.49248 2.45868 171.62 -6.40114 87.7402 -21.9376 9.73884 3.89599 74.1936 -3.37578 2.60788 28.4582 -1.48227 4.92627 0.843316 8.15857 -89.7162 10.5542 1.81015 0.401846 -1.11552 1.82608 0.321751 -23.6585 1.60567 0.92741 -3.64589 1.60567 0.927402 86.2388 -47.4209 -107.128 28.2644 -23.1214 -11.1866 -17.319 -20.4064 -17.808 -9.68961 -0.136015 -3.53621 -89.9473 -48.9596 78.808 -25.7393 16.6138 2.74708 9.4049 -7.59203 -19.2823 -4.43563 -0.0968037 -3.7873 6.0483 -2.37614 3.28694 9.17962 -3.07265 -1.20121 
32.381 101.098 -281.343 173.35 -82.9782 168.639 179.725 16.8782 82.5841 -18.2821 18.4674 5.6833 66.3236 3.69298 -0.388171 13.894 -7.07893 2.20597 171.927 -10.7262 88.1565 -18.8261 10.7325 3.44788 74.0073 -3.76993 2.60715 30.0925 -1.095 4.71751 0.847838 8.22414 -89.788 10.4243 1.78618 0.264189 -1.24538 1.79608 0.185285 -23.7888 1.62418 0.788931 -3.77618 1.62418 0.788922 85.9949 -47.6439 -107.436 26.8832 -23.2249 -12.8821 -18.837 -19.7187 -20.8736 -9.62712 -0.0739972 -4.30508 -90.2595 -49.8247 78.5298 -27.6495 17.8228 5.73242 8.69822 -8.92197 -16.1732 -3.26292 -0.10286 -2.11419 5.46283 -2.02937 3.92818 9.9408 -2.82343 -0.990822 
